<svg xmlns="http://www.w3.org/2000/svg" width="510" height="490" viewBox="0 0 510 490">
<rect width="100%" height="100%" fill="white" />
<text x="255.0" y="36" text-anchor="middle" font-family="Arial" font-size="24">CNN Confusion Matrix (3class)</text>
<text x="255.0" y="70" text-anchor="middle" font-family="Arial" font-size="14">Predicted label</text>
<text x="34" y="245.0" transform="rotate(-90 34 245.0)" text-anchor="middle" font-family="Arial" font-size="14">True label</text>
<text x="195.0" y="82" text-anchor="middle" font-family="Arial" font-size="13">baseline</text>
<text x="285.0" y="82" text-anchor="middle" font-family="Arial" font-size="13">stress</text>
<text x="375.0" y="82" text-anchor="middle" font-family="Arial" font-size="13">amusement</text>
<text x="134" y="150.0" text-anchor="end" font-family="Arial" font-size="13">baseline</text>
<text x="134" y="240.0" text-anchor="end" font-family="Arial" font-size="13">stress</text>
<text x="134" y="330.0" text-anchor="end" font-family="Arial" font-size="13">amusement</text>
<rect x="150" y="100" width="90" height="90" fill="rgb(153,140,147)" stroke="#666" stroke-width="1" />
<text x="195.0" y="151.0" text-anchor="middle" font-family="Arial" font-size="18">225</text>
<rect x="240" y="100" width="90" height="90" fill="rgb(206,203,210)" stroke="#666" stroke-width="1" />
<text x="285.0" y="151.0" text-anchor="middle" font-family="Arial" font-size="18">94</text>
<rect x="330" y="100" width="90" height="90" fill="rgb(136,121,128)" stroke="#666" stroke-width="1" />
<text x="375.0" y="151.0" text-anchor="middle" font-family="Arial" font-size="18">265</text>
<rect x="150" y="190" width="90" height="90" fill="rgb(238,240,247)" stroke="#666" stroke-width="1" />
<text x="195.0" y="241.0" text-anchor="middle" font-family="Arial" font-size="18">16</text>
<rect x="240" y="190" width="90" height="90" fill="rgb(125,108,115)" stroke="#666" stroke-width="1" />
<text x="285.0" y="241.0" text-anchor="middle" font-family="Arial" font-size="18">294</text>
<rect x="330" y="190" width="90" height="90" fill="rgb(234,236,243)" stroke="#666" stroke-width="1" />
<text x="375.0" y="241.0" text-anchor="middle" font-family="Arial" font-size="18">25</text>
<rect x="150" y="280" width="90" height="90" fill="rgb(224,224,231)" stroke="#666" stroke-width="1" />
<text x="195.0" y="331.0" text-anchor="middle" font-family="Arial" font-size="18">50</text>
<rect x="240" y="280" width="90" height="90" fill="rgb(229,229,236)" stroke="#666" stroke-width="1" />
<text x="285.0" y="331.0" text-anchor="middle" font-family="Arial" font-size="18">39</text>
<rect x="330" y="280" width="90" height="90" fill="rgb(207,204,211)" stroke="#666" stroke-width="1" />
<text x="375.0" y="331.0" text-anchor="middle" font-family="Arial" font-size="18">91</text>
</svg>