<svg xmlns="http://www.w3.org/2000/svg" width="510" height="490" viewBox="0 0 510 490">
<rect width="100%" height="100%" fill="white" />
<text x="255.0" y="36" text-anchor="middle" font-family="Arial" font-size="24">Random Forest Confusion Matrix (3class)</text>
<text x="255.0" y="70" text-anchor="middle" font-family="Arial" font-size="14">Predicted label</text>
<text x="34" y="245.0" transform="rotate(-90 34 245.0)" text-anchor="middle" font-family="Arial" font-size="14">True label</text>
<text x="195.0" y="82" text-anchor="middle" font-family="Arial" font-size="13">baseline</text>
<text x="285.0" y="82" text-anchor="middle" font-family="Arial" font-size="13">stress</text>
<text x="375.0" y="82" text-anchor="middle" font-family="Arial" font-size="13">amusement</text>
<text x="134" y="150.0" text-anchor="end" font-family="Arial" font-size="13">baseline</text>
<text x="134" y="240.0" text-anchor="end" font-family="Arial" font-size="13">stress</text>
<text x="134" y="330.0" text-anchor="end" font-family="Arial" font-size="13">amusement</text>
<rect x="150" y="100" width="90" height="90" fill="rgb(125,108,115)" stroke="#666" stroke-width="1" />
<text x="195.0" y="151.0" text-anchor="middle" font-family="Arial" font-size="18">479</text>
<rect x="240" y="100" width="90" height="90" fill="rgb(221,220,227)" stroke="#666" stroke-width="1" />
<text x="285.0" y="151.0" text-anchor="middle" font-family="Arial" font-size="18">95</text>
<rect x="330" y="100" width="90" height="90" fill="rgb(242,245,252)" stroke="#666" stroke-width="1" />
<text x="375.0" y="151.0" text-anchor="middle" font-family="Arial" font-size="18">10</text>
<rect x="150" y="190" width="90" height="90" fill="rgb(222,222,229)" stroke="#666" stroke-width="1" />
<text x="195.0" y="241.0" text-anchor="middle" font-family="Arial" font-size="18">88</text>
<rect x="240" y="190" width="90" height="90" fill="rgb(183,175,182)" stroke="#666" stroke-width="1" />
<text x="285.0" y="241.0" text-anchor="middle" font-family="Arial" font-size="18">247</text>
<rect x="330" y="190" width="90" height="90" fill="rgb(245,248,255)" stroke="#666" stroke-width="1" />
<text x="375.0" y="241.0" text-anchor="middle" font-family="Arial" font-size="18">0</text>
<rect x="150" y="280" width="90" height="90" fill="rgb(220,219,226)" stroke="#666" stroke-width="1" />
<text x="195.0" y="331.0" text-anchor="middle" font-family="Arial" font-size="18">96</text>
<rect x="240" y="280" width="90" height="90" fill="rgb(233,234,241)" stroke="#666" stroke-width="1" />
<text x="285.0" y="331.0" text-anchor="middle" font-family="Arial" font-size="18">47</text>
<rect x="330" y="280" width="90" height="90" fill="rgb(235,237,244)" stroke="#666" stroke-width="1" />
<text x="375.0" y="331.0" text-anchor="middle" font-family="Arial" font-size="18">37</text>
</svg>