<svg xmlns="http://www.w3.org/2000/svg" width="1200" height="400" viewBox="0 0 1200 400">
<rect width="100%" height="100%" fill="white" />
<text x="600.0" y="24" text-anchor="middle" font-family="Arial" font-size="18">Filtered Wrist BVP Signal - First 30 Seconds (S2)</text>
<line x1="70" y1="350" x2="1180" y2="350" stroke="black" stroke-width="1" />
<line x1="70" y1="40" x2="70" y2="350" stroke="black" stroke-width="1" />
<line x1="70.00" y1="40" x2="70.00" y2="350" stroke="#d9d9d9" stroke-width="1" />
<text x="70.00" y="370" text-anchor="middle" font-family="Arial" font-size="12">0.0</text>
<line x1="255.00" y1="40" x2="255.00" y2="350" stroke="#d9d9d9" stroke-width="1" />
<text x="255.00" y="370" text-anchor="middle" font-family="Arial" font-size="12">5.0</text>
<line x1="440.00" y1="40" x2="440.00" y2="350" stroke="#d9d9d9" stroke-width="1" />
<text x="440.00" y="370" text-anchor="middle" font-family="Arial" font-size="12">10.0</text>
<line x1="625.00" y1="40" x2="625.00" y2="350" stroke="#d9d9d9" stroke-width="1" />
<text x="625.00" y="370" text-anchor="middle" font-family="Arial" font-size="12">15.0</text>
<line x1="810.00" y1="40" x2="810.00" y2="350" stroke="#d9d9d9" stroke-width="1" />
<text x="810.00" y="370" text-anchor="middle" font-family="Arial" font-size="12">20.0</text>
<line x1="995.00" y1="40" x2="995.00" y2="350" stroke="#d9d9d9" stroke-width="1" />
<text x="995.00" y="370" text-anchor="middle" font-family="Arial" font-size="12">25.0</text>
<line x1="1180.00" y1="40" x2="1180.00" y2="350" stroke="#d9d9d9" stroke-width="1" />
<text x="1180.00" y="370" text-anchor="middle" font-family="Arial" font-size="12">30.0</text>
<line x1="70" y1="350.00" x2="1180" y2="350.00" stroke="#d9d9d9" stroke-width="1" />
<text x="60" y="354.00" text-anchor="end" font-family="Arial" font-size="12">-305.1</text>
<line x1="70" y1="288.00" x2="1180" y2="288.00" stroke="#d9d9d9" stroke-width="1" />
<text x="60" y="292.00" text-anchor="end" font-family="Arial" font-size="12">-159.3</text>
<line x1="70" y1="226.00" x2="1180" y2="226.00" stroke="#d9d9d9" stroke-width="1" />
<text x="60" y="230.00" text-anchor="end" font-family="Arial" font-size="12">-13.5</text>
<line x1="70" y1="164.00" x2="1180" y2="164.00" stroke="#d9d9d9" stroke-width="1" />
<text x="60" y="168.00" text-anchor="end" font-family="Arial" font-size="12">132.3</text>
<line x1="70" y1="102.00" x2="1180" y2="102.00" stroke="#d9d9d9" stroke-width="1" />
<text x="60" y="106.00" text-anchor="end" font-family="Arial" font-size="12">278.1</text>
<line x1="70" y1="40.00" x2="1180" y2="40.00" stroke="#d9d9d9" stroke-width="1" />
<text x="60" y="44.00" text-anchor="end" font-family="Arial" font-size="12">423.9</text>
<polyline fill="none" stroke="#1565c0" stroke-width="1.5" points="70.00,235.76 70.58,238.16 71.16,238.99 71.74,238.16 72.31,235.84 72.89,232.38 73.47,228.21 74.05,223.77 74.63,219.45 75.21,215.55 75.78,212.28 76.36,209.73 76.94,207.92 77.52,206.79 78.10,206.22 78.68,206.07 79.25,206.18 79.83,206.43 80.41,206.70 80.99,206.91 81.57,206.98 82.15,206.89 82.73,206.61 83.30,206.13 83.88,205.46 84.46,204.63 85.04,203.70 85.62,202.73 86.20,201.78 86.77,200.90 87.35,200.13 87.93,199.49 88.51,198.95 89.09,198.49 89.67,198.08 90.24,197.68 90.82,197.27 91.40,196.83 91.98,196.37 92.56,195.90 93.14,195.43 93.72,195.00 94.29,194.64 94.87,194.38 95.45,194.23 96.03,194.22 96.61,194.37 97.19,194.66 97.76,195.08 98.34,195.58 98.92,196.08 99.50,196.47 100.08,196.66 100.66,196.61 101.24,196.41 101.81,196.29 102.39,196.64 102.97,197.94 103.55,200.71 104.13,205.33 104.71,212.01 105.28,220.73 105.86,231.23 106.44,243.09 107.02,255.81 107.60,268.95 108.18,282.09 108.75,294.84 109.33,306.78 109.91,317.37 110.49,325.92 111.07,331.66 111.65,333.82 112.23,331.79 112.80,325.28 113.38,314.48 113.96,300.04 114.54,283.14 115.12,265.25 115.70,247.95 116.27,232.61 116.85,220.16 117.43,210.89 118.01,204.51 118.59,200.25 119.17,197.22 119.74,194.55 120.32,191.67 120.90,188.33 121.48,184.64 122.06,181.03 122.64,178.14 123.22,176.80 123.79,177.92 124.37,182.30 124.95,190.51 125.53,202.67 126.11,218.36 126.69,236.53 127.26,255.69 127.84,274.05 128.42,289.83 129.00,301.60 129.58,308.55 130.16,310.57 130.73,308.18 131.31,302.27 131.89,293.92 132.47,284.09 133.05,273.54 133.63,262.73 134.21,251.83 134.78,240.69 135.36,228.92 135.94,215.97 136.52,201.29 137.10,184.44 137.68,165.32 138.25,144.19 138.83,121.79 139.41,99.29 139.99,78.24 140.57,60.34 141.15,47.25 141.72,40.25 142.30,40.00 142.88,46.41 143.46,58.61 144.04,75.07 144.62,93.93 145.20,113.28 145.77,131.51 146.35,147.52 146.93,160.82 147.51,171.53 148.09,180.23 148.67,187.79 149.24,195.20 149.82,203.35 150.40,212.90 150.98,224.17 151.56,237.10 152.14,251.28 152.71,266.10 153.29,280.80 153.87,294.69 154.45,307.22 155.03,318.04 155.61,327.02 156.19,334.19 156.76,339.76 157.34,343.95 157.92,347.00 158.50,349.02 159.08,350.00 159.66,349.79 160.23,348.14 160.81,344.75 161.39,339.34 161.97,331.62 162.55,321.40 163.13,308.56 163.71,293.14 164.28,275.36 164.86,255.71 165.44,234.93 166.02,213.98 166.60,193.93 167.18,175.83 167.75,160.59 168.33,148.80 168.91,140.72 169.49,136.30 170.07,135.18 170.65,136.90 171.22,140.95 171.80,146.86 172.38,154.28 172.96,162.88 173.54,172.40 174.12,182.61 174.70,193.27 175.27,204.21 175.85,215.22 176.43,226.09 177.01,236.49 177.59,245.99 178.17,254.01 178.74,259.93 179.32,263.23 179.90,263.54 180.48,260.76 181.06,255.09 181.64,246.98 182.21,237.10 182.79,226.30 183.37,215.51 183.95,205.65 184.53,197.54 185.11,191.76 185.69,188.54 186.26,187.79 186.84,189.09 187.42,191.83 188.00,195.31 188.58,198.89 189.16,202.06 189.73,204.44 190.31,205.82 190.89,206.15 191.47,205.52 192.05,204.14 192.63,202.32 193.20,200.44 193.78,198.85 194.36,197.85 194.94,197.62 195.52,198.22 196.10,199.57 196.68,201.50 197.25,203.79 197.83,206.21 198.41,208.58 198.99,210.74 199.57,212.60 200.15,214.13 200.72,215.33 201.30,216.27 201.88,217.04 202.46,217.76 203.04,218.53 203.62,219.44 204.19,220.53 204.77,221.80 205.35,223.23 205.93,224.77 206.51,226.40 207.09,228.09 207.67,229.81 208.24,231.53 208.82,233.21 209.40,234.82 209.98,236.30 210.56,237.65 211.14,238.85 211.71,239.92 212.29,240.88 212.87,241.79 213.45,242.65 214.03,243.50 214.61,244.30 215.18,244.99 215.76,245.45 216.34,245.54 216.92,245.08 217.50,243.94 218.08,242.01 218.66,239.32 219.23,235.95 219.81,232.09 220.39,227.99 220.97,223.90 221.55,220.05 222.13,216.60 222.70,213.66 223.28,211.27 223.86,209.40 224.44,208.02 225.02,207.04 225.60,206.38 226.18,205.98 226.75,205.78 227.33,205.73 227.91,205.81 228.49,205.97 229.07,206.18 229.65,206.40 230.22,206.61 230.80,206.78 231.38,206.91 231.96,207.05 232.54,207.24 233.12,207.54 233.69,208.02 234.27,208.69 234.85,209.59 235.43,210.69 236.01,211.94 236.59,213.27 237.17,214.60 237.74,215.87 238.32,217.03 238.90,218.05 239.48,218.96 240.06,219.79 240.64,220.61 241.21,221.49 241.79,222.51 242.37,223.73 242.95,225.20 243.53,226.93 244.11,228.93 244.68,231.17 245.26,233.61 245.84,236.19 246.42,238.84 247.00,241.45 247.58,243.91 248.16,246.08 248.73,247.81 249.31,248.95 249.89,249.35 250.47,248.91 251.05,247.55 251.63,245.29 252.20,242.21 252.78,238.45 253.36,234.21 253.94,229.73 254.52,225.24 255.10,220.94 255.67,217.01 256.25,213.57 256.83,210.68 257.41,208.38 257.99,206.61 258.57,205.33 259.15,204.46 259.72,203.92 260.30,203.63 260.88,203.52 261.46,203.54 262.04,203.66 262.62,203.82 263.19,204.01 263.77,204.21 264.35,204.42 264.93,204.67 265.51,204.99 266.09,205.41 266.66,205.96 267.24,206.67 267.82,207.53 268.40,208.54 268.98,209.65 269.56,210.83 270.14,212.04 270.71,213.24 271.29,214.40 271.87,215.52 272.45,216.63 273.03,217.73 273.61,218.84 274.18,220.00 274.76,221.21 275.34,222.47 275.92,223.79 276.50,225.15 277.08,226.57 277.66,228.05 278.23,229.59 278.81,231.22 279.39,232.93 279.97,234.71 280.55,236.51 281.13,238.25 281.70,239.81 282.28,241.03 282.86,241.76 283.44,241.82 284.02,241.12 284.60,239.59 285.17,237.27 285.75,234.27 286.33,230.72 286.91,226.85 287.49,222.84 288.07,218.90 288.65,215.21 289.22,211.94 289.80,209.21 290.38,207.11 290.96,205.66 291.54,204.83 292.12,204.55 292.69,204.70 293.27,205.14 293.85,205.74 294.43,206.38 295.01,206.98 295.59,207.50 296.16,207.93 296.74,208.29 297.32,208.62 297.90,208.97 298.48,209.36 299.06,209.80 299.64,210.31 300.21,210.87 300.79,211.49 301.37,212.14 301.95,212.85 302.53,213.61 303.11,214.43 303.68,215.33 304.26,216.32 304.84,217.41 305.42,218.60 306.00,219.90 306.58,221.28 307.15,222.72 307.73,224.21 308.31,225.72 308.89,227.23 309.47,228.75 310.05,230.28 310.63,231.86 311.20,233.51 311.78,235.27 312.36,237.18 312.94,239.23 313.52,241.42 314.10,243.64 314.67,245.75 315.25,247.56 315.83,248.83 316.41,249.35 316.99,248.93 317.57,247.47 318.14,244.97 318.72,241.52 319.30,237.31 319.88,232.57 320.46,227.57 321.04,222.59 321.62,217.86 322.19,213.58 322.77,209.89 323.35,206.88 323.93,204.57 324.51,202.92 325.09,201.85 325.66,201.28 326.24,201.10 326.82,201.20 327.40,201.50 327.98,201.90 328.56,202.34 329.13,202.77 329.71,203.14 330.29,203.43 330.87,203.64 331.45,203.78 332.03,203.89 332.61,204.03 333.18,204.25 333.76,204.60 334.34,205.12 334.92,205.84 335.50,206.74 336.08,207.83 336.65,209.07 337.23,210.43 337.81,211.87 338.39,213.33 338.97,214.80 339.55,216.25 340.13,217.68 340.70,219.09 341.28,220.51 341.86,221.96 342.44,223.46 343.02,225.04 343.60,226.72 344.17,228.53 344.75,230.49 345.33,232.61 345.91,234.88 346.49,237.26 347.07,239.70 347.64,242.09 348.22,244.29 348.80,246.14 349.38,247.45 349.96,248.05 350.54,247.79 351.12,246.61 351.69,244.49 352.27,241.52 352.85,237.84 353.43,233.66 354.01,229.20 354.59,224.73 355.16,220.45 355.74,216.58 356.32,213.26 356.90,210.59 357.48,208.61 358.06,207.30 358.63,206.59 359.21,206.36 359.79,206.48 360.37,206.80 360.95,207.20 361.53,207.57 362.11,207.85 362.68,208.02 363.26,208.07 363.84,208.04 364.42,207.98 365.00,207.96 365.58,208.02 366.15,208.23 366.73,208.62 367.31,209.21 367.89,210.01 368.47,211.02 369.05,212.21 369.62,213.56 370.20,215.03 370.78,216.59 371.36,218.18 371.94,219.80 372.52,221.41 373.10,223.03 373.67,224.66 374.25,226.33 374.83,228.07 375.41,229.92 375.99,231.90 376.57,234.03 377.14,236.27 377.72,238.53 378.30,240.68 378.88,242.53 379.46,243.86 380.04,244.47 380.61,244.21 381.19,242.99 381.77,240.81 382.35,237.78 382.93,234.06 383.51,229.87 384.09,225.46 384.66,221.08 385.24,216.95 385.82,213.24 386.40,210.06 386.98,207.50 387.56,205.56 388.13,204.23 388.71,203.42 389.29,203.07 389.87,203.06 390.45,203.29 391.03,203.67 391.61,204.13 392.18,204.62 392.76,205.12 393.34,205.63 393.92,206.15 394.50,206.72 395.08,207.34 395.65,208.03 396.23,208.80 396.81,209.65 397.39,210.58 397.97,211.60 398.55,212.70 399.12,213.89 399.70,215.17 400.28,216.55 400.86,218.04 401.44,219.63 402.02,221.35 402.60,223.19 403.17,225.17 403.75,227.30 404.33,229.59 404.91,232.06 405.49,234.68 406.07,237.43 406.64,240.21 407.22,242.89 407.80,245.29 408.38,247.19 408.96,248.35 409.54,248.59 410.11,247.78 410.69,245.87 411.27,242.92 411.85,239.08 412.43,234.58 413.01,229.69 413.59,224.69 414.16,219.86 414.74,215.44 415.32,211.61 415.90,208.48 416.48,206.10 417.06,204.42 417.63,203.40 418.21,202.90 418.79,202.81 419.37,203.00 419.95,203.36 420.53,203.81 421.10,204.28 421.68,204.74 422.26,205.18 422.84,205.61 423.42,206.06 424.00,206.55 424.58,207.11 425.15,207.77 425.73,208.54 426.31,209.42 426.89,210.42 427.47,211.53 428.05,212.74 428.62,214.05 429.20,215.44 429.78,216.91 430.36,218.44 430.94,220.03 431.52,221.67 432.09,223.38 432.67,225.19 433.25,227.12 433.83,229.20 434.41,231.47 434.99,233.91 435.57,236.49 436.14,239.09 436.72,241.58 437.30,243.74 437.88,245.36 438.46,246.20 439.04,246.09 439.61,244.92 440.19,242.70 440.77,239.53 441.35,235.59 441.93,231.13 442.51,226.42 443.08,221.75 443.66,217.34 444.24,213.42 444.82,210.12 445.40,207.54 445.98,205.69 446.56,204.54 447.13,204.00 447.71,203.95 448.29,204.26 448.87,204.79 449.45,205.42 450.03,206.05 450.60,206.61 451.18,207.06 451.76,207.39 452.34,207.62 452.92,207.80 453.50,207.98 454.08,208.24 454.65,208.66 455.23,209.29 455.81,210.16 456.39,211.28 456.97,212.63 457.55,214.16 458.12,215.80 458.70,217.50 459.28,219.21 459.86,220.91 460.44,222.61 461.02,224.33 461.59,226.12 462.17,228.04 462.75,230.16 463.33,232.51 463.91,235.11 464.49,237.93 465.07,240.88 465.64,243.82 466.22,246.56 466.80,248.86 467.38,250.48 467.96,251.22 468.54,250.91 469.11,249.48 469.69,246.97 470.27,243.48 470.85,239.24 471.43,234.49 472.01,229.53 472.58,224.60 473.16,219.94 473.74,215.72 474.32,212.06 474.90,209.02 475.48,206.59 476.06,204.77 476.63,203.49 477.21,202.67 477.79,202.23 478.37,202.08 478.95,202.15 479.53,202.36 480.10,202.67 480.68,203.01 481.26,203.37 481.84,203.72 482.42,204.04 483.00,204.35 483.57,204.65 484.15,204.97 484.73,205.37 485.31,205.87 485.89,206.51 486.47,207.32 487.05,208.29 487.62,209.41 488.20,210.63 488.78,211.92 489.36,213.23 489.94,214.55 490.52,215.87 491.09,217.17 491.67,218.48 492.25,219.81 492.83,221.17 493.41,222.57 493.99,224.05 494.56,225.63 495.14,227.34 495.72,229.22 496.30,231.27 496.88,233.50 497.46,235.87 498.04,238.30 498.61,240.69 499.19,242.84 499.77,244.58 500.35,245.67 500.93,245.94 501.51,245.24 502.08,243.55 502.66,240.93 503.24,237.55 503.82,233.67 504.40,229.57 504.98,225.56 505.55,221.89 506.13,218.74 506.71,216.20 507.29,214.30 507.87,212.97 508.45,212.09 509.03,211.51 509.60,211.08 510.18,210.69 510.76,210.22 511.34,209.66 511.92,208.97 512.50,208.17 513.07,207.28 513.65,206.31 514.23,205.28 514.81,204.24 515.39,203.22 515.97,202.29 516.55,201.51 517.12,200.94 517.70,200.64 518.28,200.64 518.86,200.96 519.44,201.59 520.02,202.54 520.59,203.76 521.17,205.24 521.75,206.96 522.33,208.87 522.91,210.95 523.49,213.14 524.06,215.41 524.64,217.67 525.22,219.84 525.80,221.82 526.38,223.54 526.96,224.94 527.54,226.03 528.11,226.92 528.69,227.77 529.27,228.77 529.85,230.11 530.43,231.91 531.01,234.19 531.58,236.91 532.16,239.95 532.74,243.17 533.32,246.37 533.90,249.39 534.48,252.06 535.05,254.29 535.63,256.05 536.21,257.39 536.79,258.38 537.37,259.00 537.95,259.16 538.53,258.65 539.10,257.17 539.68,254.51 540.26,250.54 540.84,245.33 541.42,239.09 542.00,232.15 542.57,224.81 543.15,217.39 543.73,210.14 544.31,203.32 544.89,197.16 545.47,191.94 546.04,187.90 546.62,185.26 547.20,184.13 547.78,184.50 548.36,186.23 548.94,189.07 549.52,192.68 550.09,196.63 550.67,200.50 551.25,203.88 551.83,206.45 552.41,208.02 552.99,208.56 553.56,208.21 554.14,207.26 554.72,206.05 555.30,204.94 555.88,204.20 556.46,204.01 557.03,204.37 557.61,205.21 558.19,206.37 558.77,207.69 559.35,209.02 559.93,210.29 560.51,211.48 561.08,212.63 561.66,213.83 562.24,215.18 562.82,216.75 563.40,218.63 563.98,220.84 564.55,223.38 565.13,226.22 565.71,229.30 566.29,232.56 566.87,235.94 567.45,239.37 568.03,242.78 568.60,246.05 569.18,249.02 569.76,251.47 570.34,253.12 570.92,253.73 571.50,253.08 572.07,251.06 572.65,247.69 573.23,243.14 573.81,237.72 574.39,231.87 574.97,226.05 575.54,220.74 576.12,216.35 576.70,213.14 577.28,211.24 577.86,210.59 578.44,210.99 579.02,212.12 579.59,213.63 580.17,215.15 580.75,216.39 581.33,217.11 581.91,217.18 582.49,216.56 583.06,215.33 583.64,213.63 584.22,211.68 584.80,209.70 585.38,207.92 585.96,206.50 586.53,205.57 587.11,205.19 587.69,205.36 588.27,206.06 588.85,207.22 589.43,208.76 590.01,210.56 590.58,212.54 591.16,214.57 591.74,216.56 592.32,218.43 592.90,220.15 593.48,221.70 594.05,223.10 594.63,224.40 595.21,225.61 595.79,226.79 596.37,227.94 596.95,229.06 597.52,230.17 598.10,231.27 598.68,232.37 599.26,233.51 599.84,234.72 600.42,236.03 601.00,237.45 601.57,238.97 602.15,240.56 602.73,242.11 603.31,243.48 603.89,244.48 604.47,244.91 605.04,244.59 605.62,243.38 606.20,241.25 606.78,238.25 607.36,234.51 607.94,230.25 608.51,225.72 609.09,221.17 609.67,216.83 610.25,212.85 610.83,209.36 611.41,206.39 611.99,203.95 612.56,201.95 613.14,200.30 613.72,198.88 614.30,197.56 614.88,196.23 615.46,194.80 616.03,193.18 616.61,191.33 617.19,189.25 617.77,186.96 618.35,184.52 618.93,181.99 619.50,179.47 620.08,177.04 620.66,174.81 621.24,172.85 621.82,171.27 622.40,170.18 622.98,169.69 623.55,169.94 624.13,171.06 624.71,173.16 625.29,176.33 625.87,180.60 626.45,185.96 627.02,192.31 627.60,199.49 628.18,207.26 628.76,215.36 629.34,223.51 629.92,231.45 630.50,239.01 631.07,246.10 631.65,252.69 632.23,258.79 632.81,264.42 633.39,269.59 633.97,274.23 634.54,278.26 635.12,281.54 635.70,283.91 636.28,285.22 636.86,285.30 637.44,284.06 638.01,281.43 638.59,277.43 639.17,272.19 639.75,265.94 640.33,259.01 640.91,251.78 641.49,244.61 642.06,237.86 642.64,231.78 643.22,226.55 643.80,222.26 644.38,218.92 644.96,216.50 645.53,214.90 646.11,214.02 646.69,213.75 647.27,213.93 647.85,214.45 648.43,215.17 649.00,215.99 649.58,216.82 650.16,217.59 650.74,218.27 651.32,218.83 651.90,219.29 652.48,219.64 653.05,219.91 653.63,220.11 654.21,220.25 654.79,220.35 655.37,220.37 655.95,220.31 656.52,220.11 657.10,219.73 657.68,219.15 658.26,218.35 658.84,217.33 659.42,216.15 659.99,214.85 660.57,213.52 661.15,212.23 661.73,211.07 662.31,210.11 662.89,209.42 663.47,209.04 664.04,208.99 664.62,209.26 665.20,209.82 665.78,210.59 666.36,211.50 666.94,212.47 667.51,213.42 668.09,214.28 668.67,215.03 669.25,215.67 669.83,216.22 670.41,216.71 670.98,217.14 671.56,217.51 672.14,217.72 672.72,217.71 673.30,217.37 673.88,216.65 674.46,215.56 675.03,214.18 675.61,212.63 676.19,211.09 676.77,209.72 677.35,208.67 677.93,208.01 678.50,207.74 679.08,207.81 679.66,208.14 680.24,208.60 680.82,209.09 681.40,209.54 681.97,209.90 682.55,210.18 683.13,210.44 683.71,210.76 684.29,211.26 684.87,212.06 685.45,213.28 686.02,214.99 686.60,217.19 687.18,219.84 687.76,222.79 688.34,225.87 688.92,228.85 689.49,231.47 690.07,233.53 690.65,234.89 691.23,235.47 691.81,235.32 692.39,234.55 692.97,233.31 693.54,231.82 694.12,230.26 694.70,228.81 695.28,227.61 695.86,226.75 696.44,226.26 697.01,226.16 697.59,226.38 698.17,226.86 698.75,227.47 699.33,228.09 699.91,228.58 700.48,228.82 701.06,228.67 701.64,228.06 702.22,226.94 702.80,225.30 703.38,223.20 703.96,220.72 704.53,218.02 705.11,215.25 705.69,212.59 706.27,210.21 706.85,208.25 707.43,206.79 708.00,205.88 708.58,205.49 709.16,205.58 709.74,206.06 710.32,206.86 710.90,207.89 711.47,209.09 712.05,210.41 712.63,211.80 713.21,213.20 713.79,214.56 714.37,215.82 714.95,216.92 715.52,217.82 716.10,218.47 716.68,218.88 717.26,219.06 717.84,219.09 718.42,219.06 718.99,219.07 719.57,219.24 720.15,219.62 720.73,220.29 721.31,221.25 721.89,222.47 722.46,223.94 723.04,225.58 723.62,227.36 724.20,229.24 724.78,231.18 725.36,233.12 725.94,235.00 726.51,236.72 727.09,238.14 727.67,239.09 728.25,239.41 728.83,238.98 729.41,237.74 729.98,235.71 730.56,233.03 731.14,229.86 731.72,226.43 732.30,222.95 732.88,219.62 733.45,216.61 734.03,214.03 734.61,211.99 735.19,210.53 735.77,209.68 736.35,209.42 736.93,209.72 737.50,210.48 738.08,211.59 738.66,212.92 739.24,214.33 739.82,215.68 740.40,216.86 740.97,217.76 741.55,218.32 742.13,218.51 742.71,218.36 743.29,217.94 743.87,217.37 744.45,216.80 745.02,216.37 745.60,216.19 746.18,216.32 746.76,216.75 747.34,217.40 747.92,218.20 748.49,219.04 749.07,219.88 749.65,220.68 750.23,221.50 750.81,222.38 751.39,223.38 751.96,224.53 752.54,225.83 753.12,227.21 753.70,228.57 754.28,229.77 754.86,230.69 755.44,231.20 756.01,231.24 756.59,230.80 757.17,229.91 757.75,228.67 758.33,227.18 758.91,225.58 759.48,223.95 760.06,222.37 760.64,220.89 761.22,219.51 761.80,218.23 762.38,217.06 762.95,216.00 763.53,215.06 764.11,214.27 764.69,213.64 765.27,213.18 765.85,212.91 766.43,212.80 767.00,212.83 767.58,212.98 768.16,213.22 768.74,213.51 769.32,213.84 769.90,214.21 770.47,214.63 771.05,215.14 771.63,215.75 772.21,216.47 772.79,217.30 773.37,218.22 773.94,219.17 774.52,220.11 775.10,221.01 775.68,221.84 776.26,222.61 776.84,223.35 777.42,224.11 777.99,224.94 778.57,225.89 779.15,226.96 779.73,228.13 780.31,229.31 780.89,230.38 781.46,231.18 782.04,231.51 782.62,231.24 783.20,230.26 783.78,228.53 784.36,226.12 784.93,223.16 785.51,219.86 786.09,216.43 786.67,213.09 787.25,210.01 787.83,207.34 788.41,205.15 788.98,203.46 789.56,202.24 790.14,201.46 790.72,201.02 791.30,200.85 791.88,200.85 792.45,200.95 793.03,201.08 793.61,201.18 794.19,201.21 794.77,201.15 795.35,201.00 795.92,200.78 796.50,200.50 797.08,200.20 797.66,199.85 798.24,199.44 798.82,198.90 799.40,198.19 799.97,197.31 800.55,196.33 801.13,195.47 801.71,195.08 802.29,195.64 802.87,197.71 803.44,201.87 804.02,208.53 804.60,217.90 805.18,229.86 805.76,243.92 806.34,259.28 806.92,274.88 807.49,289.55 808.07,302.18 808.65,311.84 809.23,317.87 809.81,319.96 810.39,318.09 810.96,312.55 811.54,303.81 812.12,292.52 812.70,279.37 813.28,265.08 813.86,250.32 814.43,235.71 815.01,221.73 815.59,208.81 816.17,197.27 816.75,187.43 817.33,179.54 817.91,173.83 818.48,170.44 819.06,169.40 819.64,170.59 820.22,173.77 820.80,178.56 821.38,184.50 821.95,191.13 822.53,197.96 823.11,204.59 823.69,210.63 824.27,215.83 824.85,220.00 825.42,223.10 826.00,225.18 826.58,226.34 827.16,226.74 827.74,226.54 828.32,225.85 828.90,224.75 829.47,223.33 830.05,221.66 830.63,219.85 831.21,218.07 831.79,216.47 832.37,215.23 832.94,214.44 833.52,214.13 834.10,214.24 834.68,214.63 835.26,215.11 835.84,215.52 836.41,215.71 836.99,215.59 837.57,215.13 838.15,214.38 838.73,213.41 839.31,212.33 839.89,211.27 840.46,210.33 841.04,209.62 841.62,209.18 842.20,209.04 842.78,209.20 843.36,209.61 843.93,210.23 844.51,210.99 845.09,211.85 845.67,212.78 846.25,213.76 846.83,214.78 847.40,215.83 847.98,216.91 848.56,217.98 849.14,219.00 849.72,219.93 850.30,220.74 850.88,221.40 851.45,221.90 852.03,222.25 852.61,222.48 853.19,222.62 853.77,222.70 854.35,222.77 854.92,222.85 855.50,222.96 856.08,223.12 856.66,223.36 857.24,223.67 857.82,224.10 858.39,224.65 858.97,225.34 859.55,226.19 860.13,227.19 860.71,228.31 861.29,229.48 861.87,230.60 862.44,231.57 863.02,232.23 863.60,232.48 864.18,232.22 864.76,231.38 865.34,229.99 865.91,228.12 866.49,225.88 867.07,223.46 867.65,221.02 868.23,218.74 868.81,216.74 869.39,215.13 869.96,213.97 870.54,213.26 871.12,212.97 871.70,213.06 872.28,213.45 872.86,214.09 873.43,214.91 874.01,215.82 874.59,216.80 875.17,217.77 875.75,218.71 876.33,219.57 876.90,220.31 877.48,220.92 878.06,221.35 878.64,221.62 879.22,221.71 879.80,221.68 880.38,221.55 880.95,221.40 881.53,221.26 882.11,221.20 882.69,221.22 883.27,221.35 883.85,221.59 884.42,221.94 885.00,222.40 885.58,222.96 886.16,223.63 886.74,224.40 887.32,225.26 887.89,226.17 888.47,227.07 889.05,227.87 889.63,228.48 890.21,228.76 890.79,228.62 891.37,227.98 891.94,226.80 892.52,225.13 893.10,223.06 893.68,220.74 894.26,218.34 894.84,216.04 895.41,213.98 895.99,212.30 896.57,211.05 897.15,210.27 897.73,209.96 898.31,210.07 898.88,210.54 899.46,211.27 900.04,212.16 900.62,213.11 901.20,214.03 901.78,214.86 902.36,215.57 902.93,216.14 903.51,216.60 904.09,216.98 904.67,217.31 905.25,217.63 905.83,218.00 906.40,218.42 906.98,218.92 907.56,219.49 908.14,220.12 908.72,220.77 909.30,221.43 909.87,222.04 910.45,222.59 911.03,223.04 911.61,223.39 912.19,223.65 912.77,223.84 913.35,224.01 913.92,224.21 914.50,224.48 915.08,224.88 915.66,225.42 916.24,226.10 916.82,226.88 917.39,227.69 917.97,228.42 918.55,228.97 919.13,229.20 919.71,229.03 920.29,228.39 920.87,227.27 921.44,225.72 922.02,223.84 922.60,221.77 923.18,219.65 923.76,217.65 924.34,215.88 924.91,214.43 925.49,213.37 926.07,212.72 926.65,212.47 927.23,212.60 927.81,213.07 928.38,213.80 928.96,214.70 929.54,215.70 930.12,216.68 930.70,217.58 931.28,218.32 931.86,218.84 932.43,219.13 933.01,219.17 933.59,219.00 934.17,218.64 934.75,218.18 935.33,217.69 935.90,217.24 936.48,216.90 937.06,216.73 937.64,216.74 938.22,216.94 938.80,217.30 939.37,217.79 939.95,218.36 940.53,218.96 941.11,219.54 941.69,220.08 942.27,220.56 942.85,220.98 943.42,221.37 944.00,221.74 944.58,222.12 945.16,222.52 945.74,222.95 946.32,223.42 946.89,223.94 947.47,224.50 948.05,225.11 948.63,225.77 949.21,226.46 949.79,227.14 950.36,227.76 950.94,228.25 951.52,228.53 952.10,228.54 952.68,228.21 953.26,227.51 953.84,226.44 954.41,225.07 954.99,223.47 955.57,221.75 956.15,220.03 956.73,218.42 957.31,217.03 957.88,215.90 958.46,215.09 959.04,214.61 959.62,214.43 960.20,214.51 960.78,214.80 961.35,215.23 961.93,215.73 962.51,216.23 963.09,216.68 963.67,217.05 964.25,217.31 964.83,217.48 965.40,217.55 965.98,217.56 966.56,217.51 967.14,217.43 967.72,217.35 968.30,217.27 968.87,217.22 969.45,217.18 970.03,217.18 970.61,217.21 971.19,217.27 971.77,217.38 972.34,217.54 972.92,217.77 973.50,218.06 974.08,218.41 974.66,218.81 975.24,219.24 975.82,219.67 976.39,220.10 976.97,220.52 977.55,220.91 978.13,221.30 978.71,221.69 979.29,222.08 979.86,222.49 980.44,222.92 981.02,223.38 981.60,223.86 982.18,224.36 982.76,224.89 983.34,225.43 983.91,226.00 984.49,226.58 985.07,227.15 985.65,227.68 986.23,228.11 986.81,228.37 987.38,228.39 987.96,228.10 988.54,227.48 989.12,226.53 989.70,225.30 990.28,223.88 990.85,222.34 991.43,220.81 992.01,219.38 992.59,218.12 993.17,217.10 993.75,216.36 994.33,215.88 994.90,215.66 995.48,215.66 996.06,215.82 996.64,216.10 997.22,216.44 997.80,216.80 998.37,217.14 998.95,217.41 999.53,217.61 1000.11,217.71 1000.69,217.72 1001.27,217.64 1001.84,217.48 1002.42,217.27 1003.00,217.01 1003.58,216.73 1004.16,216.47 1004.74,216.24 1005.32,216.09 1005.89,216.02 1006.47,216.05 1007.05,216.18 1007.63,216.41 1008.21,216.71 1008.79,217.06 1009.36,217.43 1009.94,217.78 1010.52,218.09 1011.10,218.36 1011.68,218.59 1012.26,218.81 1012.83,219.04 1013.41,219.32 1013.99,219.68 1014.57,220.14 1015.15,220.72 1015.73,221.40 1016.31,222.18 1016.88,223.05 1017.46,223.98 1018.04,224.95 1018.62,225.93 1019.20,226.89 1019.78,227.77 1020.35,228.52 1020.93,229.06 1021.51,229.34 1022.09,229.29 1022.67,228.88 1023.25,228.10 1023.82,226.99 1024.40,225.60 1024.98,224.03 1025.56,222.40 1026.14,220.82 1026.72,219.38 1027.30,218.17 1027.87,217.22 1028.45,216.54 1029.03,216.13 1029.61,215.95 1030.19,215.96 1030.77,216.13 1031.34,216.39 1031.92,216.71 1032.50,217.05 1033.08,217.36 1033.66,217.61 1034.24,217.78 1034.82,217.86 1035.39,217.85 1035.97,217.77 1036.55,217.63 1037.13,217.48 1037.71,217.35 1038.29,217.25 1038.86,217.22 1039.44,217.25 1040.02,217.33 1040.60,217.45 1041.18,217.59 1041.76,217.74 1042.33,217.88 1042.91,218.00 1043.49,218.11 1044.07,218.21 1044.65,218.31 1045.23,218.43 1045.81,218.59 1046.38,218.80 1046.96,219.09 1047.54,219.48 1048.12,219.97 1048.70,220.58 1049.28,221.29 1049.85,222.10 1050.43,222.98 1051.01,223.90 1051.59,224.82 1052.17,225.72 1052.75,226.59 1053.32,227.41 1053.90,228.17 1054.48,228.85 1055.06,229.44 1055.64,229.89 1056.22,230.16 1056.80,230.22 1057.37,230.02 1057.95,229.56 1058.53,228.82 1059.11,227.84 1059.69,226.65 1060.27,225.30 1060.84,223.85 1061.42,222.34 1062.00,220.81 1062.58,219.30 1063.16,217.82 1063.74,216.42 1064.31,215.12 1064.89,213.95 1065.47,212.97 1066.05,212.19 1066.63,211.65 1067.21,211.33 1067.79,211.23 1068.36,211.33 1068.94,211.60 1069.52,211.99 1070.10,212.49 1070.68,213.04 1071.26,213.62 1071.83,214.19 1072.41,214.73 1072.99,215.23 1073.57,215.68 1074.15,216.08 1074.73,216.46 1075.30,216.82 1075.88,217.18 1076.46,217.53 1077.04,217.88 1077.62,218.23 1078.20,218.58 1078.78,218.93 1079.35,219.28 1079.93,219.63 1080.51,219.99 1081.09,220.34 1081.67,220.69 1082.25,221.04 1082.82,221.39 1083.40,221.78 1083.98,222.21 1084.56,222.71 1085.14,223.32 1085.72,224.03 1086.29,224.85 1086.87,225.76 1087.45,226.72 1088.03,227.68 1088.61,228.58 1089.19,229.32 1089.77,229.84 1090.34,230.06 1090.92,229.93 1091.50,229.41 1092.08,228.49 1092.66,227.20 1093.24,225.59 1093.81,223.76 1094.39,221.82 1094.97,219.92 1095.55,218.19 1096.13,216.77 1096.71,215.71 1097.29,215.06 1097.86,214.80 1098.44,214.86 1099.02,215.16 1099.60,215.59 1100.18,216.05 1100.76,216.44 1101.33,216.71 1101.91,216.83 1102.49,216.78 1103.07,216.61 1103.65,216.37 1104.23,216.11 1104.80,215.88 1105.38,215.73 1105.96,215.67 1106.54,215.69 1107.12,215.78 1107.70,215.93 1108.28,216.14 1108.85,216.41 1109.43,216.76 1110.01,217.20 1110.59,217.76 1111.17,218.45 1111.75,219.24 1112.32,220.14 1112.90,221.11 1113.48,222.13 1114.06,223.18 1114.64,224.24 1115.22,225.29 1115.79,226.30 1116.37,227.25 1116.95,228.13 1117.53,228.89 1118.11,229.50 1118.69,229.92 1119.27,230.09 1119.84,229.98 1120.42,229.55 1121.00,228.80 1121.58,227.74 1122.16,226.42 1122.74,224.89 1123.31,223.25 1123.89,221.58 1124.47,219.95 1125.05,218.47 1125.63,217.18 1126.21,216.14 1126.78,215.39 1127.36,214.91 1127.94,214.70 1128.52,214.69 1129.10,214.84 1129.68,215.07 1130.26,215.32 1130.83,215.54 1131.41,215.69 1131.99,215.77 1132.57,215.77 1133.15,215.71 1133.73,215.62 1134.30,215.52 1134.88,215.46 1135.46,215.47 1136.04,215.56 1136.62,215.75 1137.20,216.04 1137.77,216.43 1138.35,216.88 1138.93,217.39 1139.51,217.93 1140.09,218.49 1140.67,219.05 1141.25,219.60 1141.82,220.14 1142.40,220.66 1142.98,221.17 1143.56,221.65 1144.14,222.13 1144.72,222.61 1145.29,223.11 1145.87,223.65 1146.45,224.25 1147.03,224.91 1147.61,225.63 1148.19,226.40 1148.76,227.19 1149.34,227.92 1149.92,228.53 1150.50,228.92 1151.08,229.03 1151.66,228.80 1152.24,228.20 1152.81,227.25 1153.39,226.01 1153.97,224.55 1154.55,222.96 1155.13,221.35 1155.71,219.79 1156.28,218.36 1156.86,217.12 1157.44,216.09 1158.02,215.30 1158.60,214.73 1159.18,214.40 1159.76,214.26 1160.33,214.31 1160.91,214.51 1161.49,214.81 1162.07,215.17 1162.65,215.54 1163.23,215.89 1163.80,216.18 1164.38,216.39 1164.96,216.53 1165.54,216.61 1166.12,216.65 1166.70,216.67 1167.27,216.72 1167.85,216.80 1168.43,216.94 1169.01,217.13 1169.59,217.38 1170.17,217.67 1170.75,218.00 1171.32,218.36 1171.90,218.76 1172.48,219.19 1173.06,219.67 1173.64,220.21 1174.22,220.81 1174.79,221.47 1175.37,222.19 1175.95,222.96 1176.53,223.77 1177.11,224.59 1177.69,225.41 1178.26,226.20 1178.84,226.95 1179.42,227.62 1180.00,228.17" />
<text x="600.0" y="388" text-anchor="middle" font-family="Arial" font-size="14">Time (seconds)</text>
<text x="18" y="200.0" transform="rotate(-90 18 200.0)" text-anchor="middle" font-family="Arial" font-size="14">Amplitude</text>
</svg>