<svg xmlns="http://www.w3.org/2000/svg" width="1200" height="400" viewBox="0 0 1200 400">
<rect width="100%" height="100%" fill="white" />
<text x="600.0" y="24" text-anchor="middle" font-family="Arial" font-size="18">Raw Wrist BVP Signal - First 30 Seconds (S2)</text>
<line x1="70" y1="350" x2="1180" y2="350" stroke="black" stroke-width="1" />
<line x1="70" y1="40" x2="70" y2="350" stroke="black" stroke-width="1" />
<line x1="70.00" y1="40" x2="70.00" y2="350" stroke="#d9d9d9" stroke-width="1" />
<text x="70.00" y="370" text-anchor="middle" font-family="Arial" font-size="12">0.0</text>
<line x1="255.00" y1="40" x2="255.00" y2="350" stroke="#d9d9d9" stroke-width="1" />
<text x="255.00" y="370" text-anchor="middle" font-family="Arial" font-size="12">5.0</text>
<line x1="440.00" y1="40" x2="440.00" y2="350" stroke="#d9d9d9" stroke-width="1" />
<text x="440.00" y="370" text-anchor="middle" font-family="Arial" font-size="12">10.0</text>
<line x1="625.00" y1="40" x2="625.00" y2="350" stroke="#d9d9d9" stroke-width="1" />
<text x="625.00" y="370" text-anchor="middle" font-family="Arial" font-size="12">15.0</text>
<line x1="810.00" y1="40" x2="810.00" y2="350" stroke="#d9d9d9" stroke-width="1" />
<text x="810.00" y="370" text-anchor="middle" font-family="Arial" font-size="12">20.0</text>
<line x1="995.00" y1="40" x2="995.00" y2="350" stroke="#d9d9d9" stroke-width="1" />
<text x="995.00" y="370" text-anchor="middle" font-family="Arial" font-size="12">25.0</text>
<line x1="1180.00" y1="40" x2="1180.00" y2="350" stroke="#d9d9d9" stroke-width="1" />
<text x="1180.00" y="370" text-anchor="middle" font-family="Arial" font-size="12">30.0</text>
<line x1="70" y1="350.00" x2="1180" y2="350.00" stroke="#d9d9d9" stroke-width="1" />
<text x="60" y="354.00" text-anchor="end" font-family="Arial" font-size="12">-304.7</text>
<line x1="70" y1="288.00" x2="1180" y2="288.00" stroke="#d9d9d9" stroke-width="1" />
<text x="60" y="292.00" text-anchor="end" font-family="Arial" font-size="12">-151.2</text>
<line x1="70" y1="226.00" x2="1180" y2="226.00" stroke="#d9d9d9" stroke-width="1" />
<text x="60" y="230.00" text-anchor="end" font-family="Arial" font-size="12">2.3</text>
<line x1="70" y1="164.00" x2="1180" y2="164.00" stroke="#d9d9d9" stroke-width="1" />
<text x="60" y="168.00" text-anchor="end" font-family="Arial" font-size="12">155.7</text>
<line x1="70" y1="102.00" x2="1180" y2="102.00" stroke="#d9d9d9" stroke-width="1" />
<text x="60" y="106.00" text-anchor="end" font-family="Arial" font-size="12">309.2</text>
<line x1="70" y1="40.00" x2="1180" y2="40.00" stroke="#d9d9d9" stroke-width="1" />
<text x="60" y="44.00" text-anchor="end" font-family="Arial" font-size="12">462.7</text>
<polyline fill="none" stroke="#1565c0" stroke-width="1.5" points="70.00,250.90 70.58,248.49 71.16,244.85 71.74,240.31 72.31,235.31 72.89,230.28 73.47,225.54 74.05,221.32 74.63,217.72 75.21,214.77 75.78,212.48 76.36,210.83 76.94,209.77 77.52,209.23 78.10,209.09 78.68,209.18 79.25,209.34 79.83,209.45 80.41,209.50 80.99,209.52 81.57,209.58 82.15,209.71 82.73,209.84 83.30,209.86 83.88,209.62 84.46,209.09 85.04,208.27 85.62,207.33 86.20,206.43 86.77,205.74 87.35,205.35 87.93,205.22 88.51,205.27 89.09,205.35 89.67,205.37 90.24,205.29 90.82,205.14 91.40,204.99 91.98,204.86 92.56,204.74 93.14,204.63 93.72,204.56 94.29,204.56 94.87,204.68 95.45,204.87 96.03,205.02 96.61,205.01 97.19,204.86 97.76,204.84 98.34,205.35 98.92,206.76 99.50,209.04 100.08,211.67 100.66,213.74 101.24,214.48 101.81,213.65 102.39,211.85 102.97,210.34 103.55,210.69 104.13,214.30 104.71,221.89 105.28,233.22 105.86,247.07 106.44,261.46 107.02,274.53 107.60,285.24 108.18,293.89 108.75,301.78 109.33,310.30 109.91,320.08 110.49,330.54 111.07,340.24 111.65,347.26 112.23,350.00 112.80,347.08 113.38,337.69 113.96,321.72 114.54,300.11 115.12,275.28 115.70,251.16 116.27,232.09 116.85,220.79 117.43,217.40 118.01,219.04 118.59,221.82 119.17,222.67 119.74,220.43 120.32,215.81 120.90,210.47 121.48,205.88 122.06,202.13 122.64,198.89 123.22,195.48 123.79,192.40 124.37,191.40 124.95,194.70 125.53,204.00 126.11,219.76 126.69,241.21 127.26,266.01 127.84,292.23 128.42,314.50 129.00,327.70 129.58,330.11 130.16,324.41 130.73,314.60 131.31,303.08 131.89,293.67 132.47,284.57 133.05,274.88 133.63,264.61 134.21,254.56 134.78,245.36 135.36,236.44 135.94,226.88 136.52,215.64 137.10,202.24 137.68,186.07 138.25,167.20 138.83,145.45 139.41,121.22 139.99,95.95 140.57,72.10 141.15,52.85 141.72,41.35 142.30,40.00 142.88,49.10 143.46,67.21 144.04,90.84 144.62,115.77 145.20,138.33 145.77,156.26 146.35,168.99 146.93,177.30 147.51,182.73 148.09,186.61 148.67,190.26 149.24,194.70 149.82,200.98 150.40,210.06 150.98,222.47 151.56,237.88 152.14,255.06 152.71,272.34 153.29,288.17 153.87,301.78 154.45,312.97 155.03,321.84 155.61,328.52 156.19,333.20 156.76,336.28 157.34,338.49 157.92,340.60 158.50,342.93 159.08,345.14 159.66,346.32 160.23,345.41 160.81,341.92 161.39,336.04 161.97,328.40 162.55,319.41 163.13,308.95 163.71,296.31 164.28,280.71 164.86,261.83 165.44,240.17 166.02,217.08 166.60,194.44 167.18,174.26 167.75,158.31 168.33,147.68 168.91,142.47 169.49,141.71 170.07,143.72 170.65,146.87 171.22,150.28 171.80,154.09 172.38,159.20 172.96,166.36 173.54,175.55 174.12,185.80 174.70,195.72 175.27,204.48 175.85,212.29 176.43,220.23 177.01,229.39 177.59,239.87 178.17,250.45 178.74,259.12 179.32,264.02 179.90,264.46 180.48,260.95 181.06,254.62 181.64,246.40 182.21,236.61 182.79,225.29 183.37,212.84 183.95,200.55 184.53,190.34 185.11,184.01 185.69,182.29 186.26,184.49 186.84,188.94 187.42,193.78 188.00,197.77 188.58,200.53 189.16,202.36 189.73,203.62 190.31,204.48 190.89,204.74 191.47,204.08 192.05,202.35 192.63,199.73 193.20,196.84 193.78,194.44 194.36,193.21 194.94,193.51 195.52,195.23 196.10,197.88 196.68,200.83 197.25,203.57 197.83,205.88 198.41,207.83 198.99,209.59 199.57,211.28 200.15,212.79 200.72,213.93 201.30,214.62 201.88,214.95 202.46,215.26 203.04,215.95 203.62,217.23 204.19,219.03 204.77,221.07 205.35,222.99 205.93,224.62 206.51,226.00 207.09,227.35 207.67,228.91 208.24,230.77 208.82,232.83 209.40,234.91 209.98,236.80 210.56,238.44 211.14,239.80 211.71,240.93 212.29,241.85 212.87,242.57 213.45,243.12 214.03,243.60 214.61,244.20 215.18,245.06 215.76,246.22 216.34,247.45 216.92,248.34 217.50,248.37 218.08,247.13 218.66,244.48 219.23,240.63 219.81,236.08 220.39,231.45 220.97,227.27 221.55,223.80 222.13,221.11 222.70,219.09 223.28,217.58 223.86,216.49 224.44,215.70 225.02,215.13 225.60,214.66 226.18,214.22 226.75,213.82 227.33,213.55 227.91,213.55 228.49,213.88 229.07,214.51 229.65,215.30 230.22,216.03 230.80,216.57 231.38,216.85 231.96,216.92 232.54,216.91 233.12,216.97 233.69,217.26 234.27,217.91 234.85,218.95 235.43,220.34 236.01,221.97 236.59,223.67 237.17,225.30 237.74,226.75 238.32,227.97 238.90,228.96 239.48,229.73 240.06,230.37 240.64,230.97 241.21,231.70 241.79,232.68 242.37,233.99 242.95,235.64 243.53,237.56 244.11,239.64 244.68,241.83 245.26,244.10 245.84,246.42 246.42,248.76 247.00,251.04 247.58,253.23 248.16,255.25 248.73,257.03 249.31,258.47 249.89,259.35 250.47,259.40 251.05,258.39 251.63,256.20 252.20,252.91 252.78,248.81 253.36,244.28 253.94,239.65 254.52,235.18 255.10,231.03 255.67,227.31 256.25,224.12 256.83,221.55 257.41,219.59 257.99,218.18 258.57,217.16 259.15,216.35 259.72,215.64 260.30,215.03 260.88,214.61 261.46,214.44 262.04,214.54 262.62,214.81 263.19,215.09 263.77,215.28 264.35,215.37 264.93,215.41 265.51,215.48 266.09,215.65 266.66,215.98 267.24,216.50 267.82,217.27 268.40,218.30 268.98,219.53 269.56,220.86 270.14,222.14 270.71,223.23 271.29,224.12 271.87,224.86 272.45,225.57 273.03,226.37 273.61,227.31 274.18,228.39 274.76,229.62 275.34,230.97 275.92,232.40 276.50,233.85 277.08,235.25 277.66,236.56 278.23,237.77 278.81,238.94 279.39,240.11 279.97,241.36 280.55,242.75 281.13,244.30 281.70,245.98 282.28,247.65 282.86,248.99 283.44,249.61 284.02,249.19 284.60,247.55 285.17,244.82 285.75,241.33 286.33,237.51 286.91,233.65 287.49,229.91 288.07,226.31 288.65,222.85 289.22,219.59 289.80,216.73 290.38,214.49 290.96,213.04 291.54,212.41 292.12,212.48 292.69,213.04 293.27,213.81 293.85,214.56 294.43,215.14 295.01,215.50 295.59,215.64 296.16,215.66 296.74,215.66 297.32,215.75 297.90,216.03 298.48,216.51 299.06,217.16 299.64,217.91 300.21,218.65 300.79,219.34 301.37,219.95 301.95,220.54 302.53,221.15 303.11,221.82 303.68,222.58 304.26,223.42 304.84,224.35 305.42,225.40 306.00,226.62 306.58,228.01 307.15,229.53 307.73,231.12 308.31,232.71 308.89,234.29 309.47,235.86 310.05,237.41 310.63,238.93 311.20,240.37 311.78,241.71 312.36,242.98 312.94,244.32 313.52,245.90 314.10,247.88 314.67,250.24 315.25,252.73 315.83,254.89 316.41,256.20 316.99,256.24 317.57,254.80 318.14,251.96 318.72,248.04 319.30,243.42 319.88,238.48 320.46,233.50 321.04,228.68 321.62,224.20 322.19,220.20 322.77,216.84 323.35,214.22 323.93,212.34 324.51,211.10 325.09,210.34 325.66,209.88 326.24,209.62 326.82,209.49 327.40,209.53 327.98,209.75 328.56,210.16 329.13,210.70 329.71,211.26 330.29,211.71 330.87,211.96 331.45,212.01 332.03,211.96 332.61,211.94 333.18,212.08 333.76,212.42 334.34,212.97 334.92,213.71 335.50,214.62 336.08,215.72 336.65,217.00 337.23,218.43 337.81,219.95 338.39,221.44 338.97,222.83 339.55,224.12 340.13,225.35 340.70,226.62 341.28,228.00 341.86,229.50 342.44,231.10 343.02,232.76 343.60,234.46 344.17,236.21 344.75,238.01 345.33,239.87 345.91,241.77 346.49,243.75 347.07,245.83 347.64,248.02 348.22,250.29 348.80,252.47 349.38,254.29 349.96,255.42 350.54,255.55 351.12,254.53 351.69,252.35 352.27,249.18 352.85,245.29 353.43,240.99 354.01,236.56 354.59,232.23 355.16,228.17 355.74,224.51 356.32,221.37 356.90,218.85 357.48,217.01 358.06,215.89 358.63,215.44 359.21,215.51 359.79,215.91 360.37,216.40 360.95,216.83 361.53,217.09 362.11,217.17 362.68,217.12 363.26,216.98 363.84,216.80 364.42,216.65 365.00,216.60 365.58,216.69 366.15,216.96 366.73,217.40 367.31,218.00 367.89,218.74 368.47,219.65 369.05,220.75 369.62,222.06 370.20,223.53 370.78,225.08 371.36,226.66 371.94,228.24 372.52,229.82 373.10,231.45 373.67,233.09 374.25,234.71 374.83,236.22 375.41,237.61 375.99,238.94 376.57,240.37 377.14,242.09 377.72,244.19 378.30,246.60 378.88,249.04 379.46,251.10 380.04,252.33 380.61,252.39 381.19,251.14 381.77,248.67 382.35,245.19 382.93,241.05 383.51,236.58 384.09,232.09 384.66,227.82 385.24,223.95 385.82,220.56 386.40,217.73 386.98,215.46 387.56,213.71 388.13,212.49 388.71,211.77 389.29,211.50 389.87,211.59 390.45,211.89 391.03,212.26 391.61,212.58 392.18,212.82 392.76,213.02 393.34,213.27 393.92,213.64 394.50,214.15 395.08,214.79 395.65,215.53 396.23,216.32 396.81,217.16 397.39,218.05 397.97,218.98 398.55,219.97 399.12,221.02 399.70,222.16 400.28,223.42 400.86,224.85 401.44,226.46 402.02,228.26 402.60,230.18 403.17,232.18 403.75,234.15 404.33,236.07 404.91,237.94 405.49,239.85 406.07,241.94 406.64,244.31 407.22,246.95 407.80,249.72 408.38,252.26 408.96,254.13 409.54,254.92 410.11,254.35 410.69,252.34 411.27,249.07 411.85,244.84 412.43,240.03 413.01,234.97 413.59,229.95 414.16,225.21 414.74,220.96 415.32,217.38 415.90,214.59 416.48,212.60 417.06,211.34 417.63,210.66 418.21,210.38 418.79,210.34 419.37,210.45 419.95,210.67 420.53,210.95 421.10,211.27 421.68,211.58 422.26,211.87 422.84,212.14 423.42,212.46 424.00,212.87 424.58,213.43 425.15,214.14 425.73,214.98 426.31,215.89 426.89,216.85 427.47,217.84 428.05,218.88 428.62,220.02 429.20,221.32 429.78,222.80 430.36,224.44 430.94,226.18 431.52,227.92 432.09,229.63 432.67,231.28 433.25,232.89 433.83,234.51 434.41,236.17 434.99,237.98 435.57,240.01 436.14,242.34 436.72,244.95 437.30,247.65 437.88,250.05 438.46,251.67 439.04,252.05 439.61,250.92 440.19,248.35 440.77,244.63 441.35,240.20 441.93,235.50 442.51,230.82 443.08,226.34 443.66,222.18 444.24,218.47 444.82,215.37 445.40,213.00 445.98,211.41 446.56,210.55 447.13,210.23 447.71,210.29 448.29,210.59 448.87,211.01 449.45,211.50 450.03,212.02 450.60,212.51 451.18,212.91 451.76,213.19 452.34,213.35 452.92,213.41 453.50,213.40 454.08,213.41 454.65,213.54 455.23,213.92 455.81,214.66 456.39,215.81 456.97,217.33 457.55,219.07 458.12,220.88 458.70,222.63 459.28,224.28 459.86,225.84 460.44,227.38 461.02,228.92 461.59,230.48 462.17,232.08 462.75,233.75 463.33,235.59 463.91,237.66 464.49,240.03 465.07,242.70 465.64,245.59 466.22,248.53 466.80,251.27 467.38,253.47 467.96,254.75 468.54,254.77 469.11,253.35 469.69,250.51 470.27,246.50 470.85,241.74 471.43,236.65 472.01,231.61 472.58,226.89 473.16,222.64 473.74,218.92 474.32,215.74 474.90,213.09 475.48,210.96 476.06,209.31 476.63,208.11 477.21,207.29 477.79,206.82 478.37,206.60 478.95,206.57 479.53,206.65 480.10,206.84 480.68,207.12 481.26,207.49 481.84,207.96 482.42,208.46 483.00,208.92 483.57,209.26 484.15,209.47 484.73,209.61 485.31,209.83 485.89,210.29 486.47,211.11 487.05,212.28 487.62,213.70 488.20,215.19 488.78,216.58 489.36,217.81 489.94,218.92 490.52,220.02 491.09,221.20 491.67,222.53 492.25,224.01 492.83,225.56 493.41,227.15 493.99,228.74 494.56,230.36 495.14,232.01 495.72,233.71 496.30,235.45 496.88,237.25 497.46,239.16 498.04,241.22 498.61,243.51 499.19,245.98 499.77,248.42 500.35,250.49 500.93,251.75 501.51,251.76 502.08,250.28 502.66,247.38 503.24,243.39 503.82,238.87 504.40,234.36 504.98,230.26 505.55,226.82 506.13,224.10 506.71,222.14 507.29,220.94 507.87,220.40 508.45,220.34 509.03,220.42 509.60,220.31 510.18,219.80 510.76,218.90 511.34,217.83 511.92,216.86 512.50,216.14 513.07,215.64 513.65,215.19 514.23,214.63 514.81,213.88 515.39,212.98 515.97,212.04 516.55,211.20 517.12,210.61 517.70,210.40 518.28,210.61 518.86,211.25 519.44,212.20 520.02,213.34 520.59,214.60 521.17,216.00 521.75,217.55 522.33,219.28 522.91,221.10 523.49,222.94 524.06,224.84 524.64,226.97 525.22,229.52 525.80,232.44 526.38,235.33 526.96,237.56 527.54,238.56 528.11,238.36 528.69,237.61 529.27,237.29 529.85,238.13 530.43,240.24 531.01,243.17 531.58,246.37 532.16,249.60 532.74,253.04 533.32,256.90 533.90,260.93 534.48,264.32 535.05,266.10 535.63,265.88 536.21,264.29 536.79,262.78 537.37,262.78 537.95,264.69 538.53,267.49 539.10,269.22 539.68,268.02 540.26,263.23 540.84,255.62 541.42,246.96 542.00,238.93 542.57,232.31 543.15,226.85 543.73,221.69 544.31,216.08 544.89,209.93 545.47,203.80 546.04,198.60 546.62,195.06 547.20,193.49 547.78,193.73 548.36,195.43 548.94,198.23 549.52,201.90 550.09,206.23 550.67,210.85 551.25,215.20 551.83,218.53 552.41,220.20 552.99,219.92 553.56,217.91 554.14,214.85 554.72,211.73 555.30,209.47 555.88,208.64 556.46,209.31 557.03,211.08 557.61,213.31 558.19,215.40 558.77,216.95 559.35,217.87 559.93,218.29 560.51,218.46 561.08,218.63 561.66,219.04 562.24,219.81 562.82,221.05 563.40,222.83 563.98,225.19 564.55,228.04 565.13,231.22 565.71,234.42 566.29,237.33 566.87,239.78 567.45,241.82 568.03,243.75 568.60,245.93 569.18,248.55 569.76,251.44 570.34,254.09 570.92,255.81 571.50,256.04 572.07,254.47 572.65,251.11 573.23,246.20 573.81,240.08 574.39,233.22 574.97,226.25 575.54,219.87 576.12,214.82 576.70,211.57 577.28,210.25 577.86,210.58 578.44,211.96 579.02,213.78 579.59,215.56 580.17,217.03 580.75,218.04 581.33,218.45 581.91,218.16 582.49,217.06 583.06,215.22 583.64,212.84 584.22,210.29 584.80,207.94 585.38,206.10 585.96,204.93 586.53,204.42 587.11,204.45 587.69,204.83 588.27,205.48 588.85,206.37 589.43,207.59 590.01,209.18 590.58,211.12 591.16,213.25 591.74,215.31 592.32,217.10 592.90,218.48 593.48,219.53 594.05,220.41 594.63,221.35 595.21,222.49 595.79,223.84 596.37,225.33 596.95,226.81 597.52,228.20 598.10,229.45 598.68,230.58 599.26,231.63 599.84,232.62 600.42,233.57 601.00,234.51 601.57,235.55 602.15,236.80 602.73,238.38 603.31,240.23 603.89,242.11 604.47,243.61 605.04,244.25 605.62,243.65 606.20,241.67 606.78,238.44 607.36,234.33 607.94,229.79 608.51,225.23 609.09,220.95 609.67,217.09 610.25,213.75 610.83,210.95 611.41,208.70 611.99,206.97 612.56,205.63 613.14,204.55 613.72,203.58 614.30,202.61 614.88,201.60 615.46,200.52 616.03,199.32 616.61,197.91 617.19,196.20 617.77,194.17 618.35,191.94 618.93,189.69 619.50,187.64 620.08,185.93 620.66,184.58 621.24,183.52 621.82,182.71 622.40,182.18 622.98,182.06 623.55,182.52 624.13,183.71 624.71,185.76 625.29,188.73 625.87,192.71 626.45,197.84 627.02,204.23 627.60,211.86 628.18,220.52 628.76,229.71 629.34,238.78 629.92,247.11 630.50,254.34 631.07,260.49 631.65,265.93 632.23,271.12 632.81,276.38 633.39,281.74 633.97,286.89 634.54,291.42 635.12,295.02 635.70,297.61 636.28,299.27 636.86,300.07 637.44,299.88 638.01,298.38 638.59,295.20 639.17,290.19 639.75,283.61 640.33,276.07 640.91,268.35 641.49,261.17 642.06,254.96 642.64,249.82 643.22,245.64 643.80,242.24 644.38,239.49 644.96,237.34 645.53,235.80 646.11,234.88 646.69,234.53 647.27,234.67 647.85,235.16 648.43,235.87 649.00,236.63 649.58,237.36 650.16,237.98 650.74,238.48 651.32,238.89 651.90,239.21 652.48,239.42 653.05,239.49 653.63,239.42 654.21,239.25 654.79,239.08 655.37,238.98 655.95,238.95 656.52,238.87 657.10,238.60 657.68,237.99 658.26,236.97 658.84,235.62 659.42,234.08 659.99,232.49 660.57,230.95 661.15,229.47 661.73,228.07 662.31,226.78 662.89,225.71 663.47,224.96 664.04,224.59 664.62,224.62 665.20,225.00 665.78,225.66 666.36,226.55 666.94,227.54 667.51,228.47 668.09,229.10 668.67,229.26 669.25,228.92 669.83,228.29 670.41,227.73 670.98,227.58 671.56,228.00 672.14,228.83 672.72,229.66 673.30,230.00 673.88,229.47 674.46,227.95 675.03,225.62 675.61,222.89 676.19,220.22 676.77,218.06 677.35,216.64 677.93,216.03 678.50,216.08 679.08,216.54 679.66,217.17 680.24,217.76 680.82,218.20 681.40,218.48 681.97,218.60 682.55,218.60 683.13,218.50 683.71,218.37 684.29,218.30 684.87,218.46 685.45,219.01 686.02,220.11 686.60,221.85 687.18,224.26 687.76,227.28 688.34,230.70 688.92,234.19 689.49,237.31 690.07,239.64 690.65,240.88 691.23,240.97 691.81,240.08 692.39,238.55 692.97,236.78 693.54,235.06 694.12,233.55 694.70,232.30 695.28,231.31 695.86,230.61 696.44,230.24 697.01,230.19 697.59,230.43 698.17,230.87 698.75,231.41 699.33,231.94 699.91,232.40 700.48,232.70 701.06,232.73 701.64,232.34 702.22,231.44 702.80,229.95 703.38,227.93 703.96,225.47 704.53,222.69 705.11,219.76 705.69,216.90 706.27,214.35 706.85,212.40 707.43,211.20 708.00,210.79 708.58,211.00 709.16,211.58 709.74,212.31 710.32,213.05 710.90,213.83 711.47,214.67 712.05,215.66 712.63,216.79 713.21,218.06 713.79,219.42 714.37,220.84 714.95,222.27 715.52,223.58 716.10,224.58 716.68,225.15 717.26,225.24 717.84,224.96 718.42,224.51 718.99,224.18 719.57,224.18 720.15,224.63 720.73,225.57 721.31,226.94 721.89,228.64 722.46,230.46 723.04,232.24 723.62,233.82 724.20,235.15 724.78,236.32 725.36,237.52 725.94,238.95 726.51,240.72 727.09,242.71 727.67,244.58 728.25,245.86 728.83,246.06 729.41,244.89 729.98,242.40 730.56,238.97 731.14,235.13 731.72,231.41 732.30,228.15 732.88,225.40 733.45,223.03 734.03,220.92 734.61,219.02 735.19,217.48 735.77,216.45 736.35,216.07 736.93,216.33 737.50,217.12 738.08,218.22 738.66,219.47 739.24,220.75 739.82,222.02 740.40,223.25 740.97,224.37 741.55,225.25 742.13,225.71 742.71,225.57 743.29,224.77 743.87,223.46 744.45,222.01 745.02,220.85 745.60,220.41 746.18,220.87 746.76,222.10 747.34,223.75 747.92,225.36 748.49,226.54 749.07,227.15 749.65,227.25 750.23,227.12 750.81,227.06 751.39,227.36 751.96,228.18 752.54,229.52 753.12,231.25 753.70,233.14 754.28,234.91 754.86,236.29 755.44,237.04 756.01,237.03 756.59,236.24 757.17,234.79 757.75,232.92 758.33,230.95 758.91,229.15 759.48,227.68 760.06,226.55 760.64,225.63 761.22,224.75 761.80,223.77 762.38,222.64 762.95,221.44 763.53,220.29 764.11,219.28 764.69,218.50 765.27,217.98 765.85,217.72 766.43,217.70 767.00,217.93 767.58,218.33 768.16,218.82 768.74,219.29 769.32,219.64 769.90,219.84 770.47,219.95 771.05,220.09 771.63,220.42 772.21,221.06 772.79,222.05 773.37,223.32 773.94,224.72 774.52,226.08 775.10,227.27 775.68,228.22 776.26,228.92 776.84,229.44 777.42,229.86 777.99,230.28 778.57,230.80 779.15,231.54 779.73,232.58 780.31,233.94 780.89,235.52 781.46,237.12 782.04,238.37 782.62,238.87 783.20,238.33 783.78,236.63 784.36,233.88 784.93,230.41 785.51,226.67 786.09,223.06 786.67,219.85 787.25,217.19 787.83,215.08 788.41,213.48 788.98,212.32 789.56,211.54 790.14,211.07 790.72,210.84 791.30,210.78 791.88,210.86 792.45,211.06 793.03,211.37 793.61,211.71 794.19,211.95 794.77,211.92 795.35,211.52 795.92,210.76 796.50,209.80 797.08,208.92 797.66,208.42 798.24,208.49 798.82,209.11 799.40,210.10 799.97,211.11 800.55,211.75 801.13,211.74 801.71,211.06 802.29,210.09 802.87,209.62 803.44,210.74 804.02,214.60 804.60,222.11 805.18,233.62 805.76,248.71 806.34,266.15 806.92,284.16 807.49,300.74 808.07,314.15 808.65,323.27 809.23,327.75 809.81,327.88 810.39,324.28 810.96,317.62 811.54,308.40 812.12,297.08 812.70,284.18 813.28,270.46 813.86,256.77 814.43,243.85 815.01,232.00 815.59,221.09 816.17,210.82 816.75,201.06 817.33,192.18 817.91,184.98 818.48,180.33 819.06,178.77 819.64,180.21 820.22,183.99 820.80,189.24 821.38,195.21 821.95,201.49 822.53,207.89 823.11,214.25 823.69,220.18 824.27,225.17 824.85,228.76 825.42,230.78 826.00,231.46 826.58,231.33 827.16,231.04 827.74,230.96 828.32,231.16 828.90,231.32 829.47,230.94 830.05,229.63 830.63,227.31 831.21,224.31 831.79,221.26 832.37,218.85 832.94,217.55 833.52,217.46 834.10,218.30 834.68,219.56 835.26,220.71 835.84,221.36 836.41,221.38 836.99,220.80 837.57,219.76 838.15,218.43 838.73,216.97 839.31,215.53 839.89,214.22 840.46,213.13 841.04,212.36 841.62,211.94 842.20,211.93 842.78,212.29 843.36,212.95 843.93,213.75 844.51,214.52 845.09,215.15 845.67,215.64 846.25,216.07 846.83,216.62 847.40,217.39 847.98,218.41 848.56,219.62 849.14,220.84 849.72,221.93 850.30,222.78 850.88,223.36 851.45,223.68 852.03,223.83 852.61,223.86 853.19,223.84 853.77,223.83 854.35,223.90 854.92,224.07 855.50,224.35 856.08,224.73 856.66,225.13 857.24,225.54 857.82,225.92 858.39,226.30 858.97,226.72 859.55,227.25 860.13,227.95 860.71,228.85 861.29,229.95 861.87,231.22 862.44,232.53 863.02,233.68 863.60,234.45 864.18,234.59 864.76,233.95 865.34,232.50 865.91,230.37 866.49,227.80 867.07,225.08 867.65,222.50 868.23,220.27 868.81,218.52 869.39,217.29 869.96,216.53 870.54,216.19 871.12,216.19 871.70,216.46 872.28,216.93 872.86,217.56 873.43,218.30 874.01,219.08 874.59,219.89 875.17,220.71 875.75,221.55 876.33,222.44 876.90,223.36 877.48,224.23 878.06,224.93 878.64,225.35 879.22,225.43 879.80,225.23 880.38,224.87 880.95,224.54 881.53,224.40 882.11,224.49 882.69,224.80 883.27,225.25 883.85,225.75 884.42,226.24 885.00,226.70 885.58,227.14 886.16,227.60 886.74,228.09 887.32,228.63 887.89,229.27 888.47,230.05 889.05,230.98 889.63,231.98 890.21,232.86 890.79,233.35 891.37,233.18 891.94,232.15 892.52,230.27 893.10,227.76 893.68,224.97 894.26,222.30 894.84,220.01 895.41,218.21 895.99,216.88 896.57,215.93 897.15,215.31 897.73,215.04 898.31,215.16 898.88,215.70 899.46,216.58 900.04,217.66 900.62,218.73 901.20,219.66 901.78,220.37 902.36,220.91 902.93,221.30 903.51,221.63 904.09,221.91 904.67,222.19 905.25,222.49 905.83,222.83 906.40,223.25 906.98,223.77 907.56,224.36 908.14,225.02 908.72,225.71 909.30,226.41 909.87,227.09 910.45,227.73 911.03,228.28 911.61,228.72 912.19,229.00 912.77,229.14 913.35,229.17 913.92,229.18 914.50,229.24 915.08,229.42 915.66,229.77 916.24,230.32 916.82,231.05 917.39,231.94 917.97,232.90 918.55,233.82 919.13,234.51 919.71,234.73 920.29,234.29 920.87,233.11 921.44,231.25 922.02,228.93 922.60,226.50 923.18,224.24 923.76,222.37 924.34,220.92 924.91,219.85 925.49,219.07 926.07,218.53 926.65,218.26 927.23,218.31 927.81,218.72 928.38,219.44 928.96,220.38 929.54,221.39 930.12,222.36 930.70,223.21 931.28,223.92 931.86,224.48 932.43,224.86 933.01,225.00 933.59,224.86 934.17,224.43 934.75,223.81 935.33,223.13 935.90,222.56 936.48,222.20 937.06,222.09 937.64,222.22 938.22,222.53 938.80,223.00 939.37,223.60 939.95,224.30 940.53,225.01 941.11,225.65 941.69,226.12 942.27,226.41 942.85,226.59 943.42,226.78 944.00,227.09 944.58,227.56 945.16,228.15 945.74,228.78 946.32,229.36 946.89,229.85 947.47,230.26 948.05,230.66 948.63,231.09 949.21,231.59 949.79,232.17 950.36,232.83 950.94,233.50 951.52,234.09 952.10,234.44 952.68,234.42 953.26,233.88 953.84,232.79 954.41,231.24 954.99,229.40 955.57,227.48 956.15,225.68 956.73,224.14 957.31,222.89 957.88,221.94 958.46,221.28 959.04,220.89 959.62,220.79 960.20,220.96 960.78,221.36 961.35,221.90 961.93,222.47 962.51,222.98 963.09,223.36 963.67,223.61 964.25,223.77 964.83,223.86 965.40,223.89 965.98,223.87 966.56,223.82 967.14,223.74 967.72,223.69 968.30,223.69 968.87,223.76 969.45,223.86 970.03,223.95 970.61,224.01 971.19,224.02 971.77,224.02 972.34,224.05 972.92,224.18 973.50,224.45 974.08,224.85 974.66,225.37 975.24,225.92 975.82,226.43 976.39,226.87 976.97,227.22 977.55,227.50 978.13,227.79 978.71,228.11 979.29,228.49 979.86,228.92 980.44,229.42 981.02,229.96 981.60,230.55 982.18,231.14 982.76,231.64 983.34,232.00 983.91,232.26 984.49,232.49 985.07,232.84 985.65,233.39 986.23,234.10 986.81,234.80 987.38,235.24 987.96,235.22 988.54,234.64 989.12,233.56 989.70,232.12 990.28,230.49 990.85,228.82 991.43,227.23 992.01,225.81 992.59,224.64 993.17,223.77 993.75,223.21 994.33,222.93 994.90,222.85 995.48,222.92 996.06,223.09 996.64,223.35 997.22,223.66 997.80,224.00 998.37,224.30 998.95,224.52 999.53,224.65 1000.11,224.69 1000.69,224.68 1001.27,224.64 1001.84,224.58 1002.42,224.46 1003.00,224.27 1003.58,224.01 1004.16,223.71 1004.74,223.44 1005.32,223.23 1005.89,223.13 1006.47,223.13 1007.05,223.25 1007.63,223.46 1008.21,223.80 1008.79,224.25 1009.36,224.77 1009.94,225.27 1010.52,225.67 1011.10,225.91 1011.68,225.99 1012.26,225.99 1012.83,226.03 1013.41,226.22 1013.99,226.60 1014.57,227.17 1015.15,227.89 1015.73,228.69 1016.31,229.52 1016.88,230.34 1017.46,231.14 1018.04,231.91 1018.62,232.66 1019.20,233.42 1019.78,234.20 1020.35,235.00 1020.93,235.73 1021.51,236.29 1022.09,236.54 1022.67,236.36 1023.25,235.68 1023.82,234.52 1024.40,232.94 1024.98,231.12 1025.56,229.25 1026.14,227.54 1026.72,226.15 1027.30,225.15 1027.87,224.50 1028.45,224.12 1029.03,223.89 1029.61,223.77 1030.19,223.72 1030.77,223.78 1031.34,223.95 1031.92,224.21 1032.50,224.54 1033.08,224.87 1033.66,225.17 1034.24,225.41 1034.82,225.53 1035.39,225.51 1035.97,225.36 1036.55,225.09 1037.13,224.80 1037.71,224.58 1038.29,224.47 1038.86,224.51 1039.44,224.63 1040.02,224.80 1040.60,224.98 1041.18,225.15 1041.76,225.29 1042.33,225.42 1042.91,225.51 1043.49,225.57 1044.07,225.61 1044.65,225.67 1045.23,225.78 1045.81,225.93 1046.38,226.13 1046.96,226.37 1047.54,226.64 1048.12,227.01 1048.70,227.52 1049.28,228.23 1049.85,229.12 1050.43,230.12 1051.01,231.14 1051.59,232.07 1052.17,232.86 1052.75,233.50 1053.32,234.02 1053.90,234.51 1054.48,235.04 1055.06,235.62 1055.64,236.22 1056.22,236.72 1056.80,237.00 1057.37,236.95 1057.95,236.50 1058.53,235.65 1059.11,234.48 1059.69,233.09 1060.27,231.61 1060.84,230.15 1061.42,228.80 1062.00,227.54 1062.58,226.35 1063.16,225.12 1063.74,223.81 1064.31,222.44 1064.89,221.11 1065.47,219.95 1066.05,219.09 1066.63,218.60 1067.21,218.41 1067.79,218.45 1068.36,218.60 1068.94,218.83 1069.52,219.13 1070.10,219.55 1070.68,220.09 1071.26,220.72 1071.83,221.36 1072.41,221.93 1072.99,222.36 1073.57,222.66 1074.15,222.90 1074.73,223.15 1075.30,223.49 1075.88,223.91 1076.46,224.37 1077.04,224.79 1077.62,225.13 1078.20,225.39 1078.78,225.61 1079.35,225.88 1079.93,226.22 1080.51,226.65 1081.09,227.13 1081.67,227.59 1082.25,227.99 1082.82,228.32 1083.40,228.63 1083.98,228.96 1084.56,229.36 1085.14,229.86 1085.72,230.47 1086.29,231.19 1086.87,232.02 1087.45,232.95 1088.03,233.93 1088.61,234.87 1089.19,235.67 1089.77,236.22 1090.34,236.48 1090.92,236.41 1091.50,236.05 1092.08,235.38 1092.66,234.36 1093.24,232.94 1093.81,231.09 1094.39,228.91 1094.97,226.64 1095.55,224.58 1096.13,223.01 1096.71,222.06 1097.29,221.72 1097.86,221.81 1098.44,222.18 1099.02,222.68 1099.60,223.24 1100.18,223.81 1100.76,224.31 1101.33,224.63 1101.91,224.66 1102.49,224.36 1103.07,223.82 1103.65,223.20 1104.23,222.71 1104.80,222.49 1105.38,222.58 1105.96,222.88 1106.54,223.28 1107.12,223.63 1107.70,223.85 1108.28,223.94 1108.85,223.96 1109.43,224.03 1110.01,224.27 1110.59,224.75 1111.17,225.47 1111.75,226.39 1112.32,227.42 1112.90,228.45 1113.48,229.46 1114.06,230.43 1114.64,231.37 1115.22,232.30 1115.79,233.18 1116.37,233.99 1116.95,234.71 1117.53,235.35 1118.11,235.92 1118.69,236.43 1119.27,236.80 1119.84,236.93 1120.42,236.69 1121.00,236.00 1121.58,234.88 1122.16,233.45 1122.74,231.86 1123.31,230.22 1123.89,228.63 1124.47,227.08 1125.05,225.63 1125.63,224.30 1126.21,223.21 1126.78,222.42 1127.36,222.00 1127.94,221.92 1128.52,222.10 1129.10,222.40 1129.68,222.72 1130.26,222.98 1130.83,223.14 1131.41,223.21 1131.99,223.20 1132.57,223.13 1133.15,223.00 1133.73,222.84 1134.30,222.67 1134.88,222.54 1135.46,222.50 1136.04,222.60 1136.62,222.84 1137.20,223.21 1137.77,223.67 1138.35,224.16 1138.93,224.64 1139.51,225.10 1140.09,225.55 1140.67,226.02 1141.25,226.51 1141.82,227.02 1142.40,227.54 1142.98,228.07 1143.56,228.59 1144.14,229.11 1144.72,229.61 1145.29,230.08 1145.87,230.51 1146.45,230.90 1147.03,231.30 1147.61,231.77 1148.19,232.38 1148.76,233.15 1149.34,234.03 1149.92,234.91 1150.50,235.60 1151.08,235.96 1151.66,235.85 1152.24,235.21 1152.81,234.09 1153.39,232.61 1153.97,230.93 1154.55,229.22 1155.13,227.60 1155.71,226.18 1156.28,224.96 1156.86,223.96 1157.44,223.12 1158.02,222.44 1158.60,221.89 1159.18,221.50 1159.76,221.28 1160.33,221.24 1160.91,221.38 1161.49,221.69 1162.07,222.11 1162.65,222.57 1163.23,223.01 1163.80,223.34 1164.38,223.54 1164.96,223.59 1165.54,223.53 1166.12,223.42 1166.70,223.32 1167.27,223.31 1167.85,223.41 1168.43,223.61 1169.01,223.91 1169.59,224.27 1170.17,224.65 1170.75,225.01 1171.32,225.34 1171.90,225.64 1172.48,225.95 1173.06,226.30 1173.64,226.75 1174.22,227.32 1174.79,228.03 1175.37,228.82 1175.95,229.65 1176.53,230.46 1177.11,231.20 1177.69,231.85 1178.26,232.42 1178.84,232.95 1179.42,233.50 1180.00,234.07" />
<text x="600.0" y="388" text-anchor="middle" font-family="Arial" font-size="14">Time (seconds)</text>
<text x="18" y="200.0" transform="rotate(-90 18 200.0)" text-anchor="middle" font-family="Arial" font-size="14">Amplitude</text>
</svg>